# xmcd CD database file
#
# Track frame offsets:
#	150
#	20928
#	48322
#	72934
#	98135
#	124339
#	146430
#	171889
#	199130
#	223592
#	256293
#	281153
#	310426
#
# Disc length: 4543 seconds
#
# Revision: 1
# Processed by: cddbd v1.5.2PL0 Copyright (c) Steve Scherf et al.
# Submitted via: jetAudio 5
#
DISCID=ce11bd0d
DTITLE=Reverend Raven - LIVE AT BLUES ON GRAND
DYEAR=2004
DGENRE=Blues
TTITLE0=I' Your Honeyboy
TTITLE1=Loving You
TTITLE2=Got Love If You Want It
TTITLE3=I've Got To Be With You Tonight
TTITLE4=Bee Hive Baby
TTITLE5=Bye Bye Baby
TTITLE6=In The Oopen
TTITLE7=Louise
TTITLE8=Who's Been Talkin
TTITLE9=Sweet Man
TTITLE10=Please Let Me Explain
TTITLE11=The Back Scratcher
TTITLE12=I Can't Get You Off My Mind
EXTD=
EXTT0=
EXTT1=
EXTT2=
EXTT3=
EXTT4=
EXTT5=
EXTT6=
EXTT7=
EXTT8=
EXTT9=
EXTT10=
EXTT11=
EXTT12=
PLAYORDER=
